<?xml version="1.0" encoding="utf-8"?><!-- Uploaded to: SVG Repo, www.svgrepo.com, Generator: SVG Repo Mixer Tools -->
<svg width="800px" height="800px" viewBox="0 0 24 24" fill="none" xmlns="http://www.w3.org/2000/svg">
<path d="M12 5.5V6.5M12 8.5V9.5M12 11.5V12M12 12V12.5M12 12H12.5M12 12H11.5M12 14.5V15.5M12 17.5V18.5M18.5 12H17.5M15.5 12H14.5M9.5 12H8.5M6.5 12H5.5M5 20H19C19.5523 20 20 19.5523 20 19V5C20 4.44772 19.5523 4 19 4H5C4.44772 4 4 4.44772 4 5V19C4 19.5523 4.44772 20 5 20Z" stroke="#464455" stroke-linecap="round" stroke-linejoin="round"/>
</svg>