<?xml version="1.0" encoding="iso-8859-1"?>
<!-- Uploaded to: SVG Repo, www.svgrepo.com, Generator: SVG Repo Mixer Tools -->
<!DOCTYPE svg PUBLIC "-//W3C//DTD SVG 1.1//EN" "http://www.w3.org/Graphics/SVG/1.1/DTD/svg11.dtd">
<svg fill="#000000" height="800px" width="800px" version="1.1" id="Capa_1" xmlns="http://www.w3.org/2000/svg" xmlns:xlink="http://www.w3.org/1999/xlink" 
	 viewBox="0 0 372.55 372.55" xml:space="preserve">
<path d="M186.276,135.715c20.692,0,37.527-16.836,37.527-37.529s-16.835-37.528-37.527-37.528
	c-20.693,0-37.529,16.835-37.529,37.528S165.583,135.715,186.276,135.715z M186.276,78.657c10.768,0,19.527,8.761,19.527,19.528
	c0,10.769-8.76,19.529-19.527,19.529c-10.769,0-19.529-8.761-19.529-19.529C166.747,87.418,175.508,78.657,186.276,78.657z
	 M238.285,64.167c-3.249-3.762-2.833-9.445,0.93-12.693l18.856-16.282c3.763-3.249,9.445-2.833,12.693,0.93
	c3.249,3.762,2.833,9.445-0.93,12.693l-18.856,16.282c-1.7,1.469-3.794,2.188-5.878,2.188
	C242.575,67.285,240.064,66.229,238.285,64.167z M178.263,35.248V9c0-4.971,4.029-9,9-9s9,4.029,9,9v26.248c0,4.971-4.029,9-9,9
	S178.263,40.219,178.263,35.248z M315.852,248.548l-14.521,27.381c-0.433,0.842-0.999,1.62-1.689,2.299
	c-0.794,0.782-1.718,1.398-2.717,1.833c-1.188,0.52-2.442,0.718-3.662,0.752c-1.198-0.008-2.409-0.256-3.563-0.766
	c-1.052-0.462-2.019-1.127-2.838-1.974c-0.646-0.667-1.177-1.423-1.583-2.236l-32.597-63.196
	c-16.152-31.314-31.957-44.675-52.847-44.675h-27.119c-20.89,0-36.694,13.36-52.849,44.675l-32.596,63.193
	c-0.442,0.888-1.034,1.707-1.761,2.417c-0.754,0.736-1.624,1.325-2.563,1.752c-1.18,0.538-2.424,0.8-3.652,0.81
	c-0.027,0-0.055,0-0.083,0c-1.195,0-2.406-0.239-3.562-0.739c-1.034-0.446-1.988-1.086-2.803-1.903
	c-0.664-0.665-1.211-1.423-1.632-2.242l-14.52-27.38c-2.329-4.392-0.656-9.839,3.734-12.168c4.39-2.329,9.838-0.656,12.168,3.734
	l6.511,12.277l24.76-48.003c13.071-25.338,32.709-54.423,68.844-54.423h27.119c36.14,0,55.776,29.085,68.847,54.423l24.759,48.003
	l6.511-12.277c2.329-4.39,7.774-6.063,12.168-3.734C316.508,238.709,318.181,244.156,315.852,248.548z M314.779,322.142
	c1.296,6.955-0.726,13.897-5.691,19.551c-9.56,10.879-13.481,12.042-26.969,14.773c-2.522,0.511-5.383,1.09-8.837,1.854
	l-63.145,13.974c-0.377,0.092-0.764,0.16-1.158,0.202c-1.048,0.117-2.088,0.045-3.074-0.193c-1.31-0.313-2.508-0.912-3.525-1.728
	c-1.028-0.821-1.881-1.871-2.474-3.094c-0.443-0.912-0.738-1.91-0.851-2.963c-0.043-0.39-0.06-0.777-0.052-1.161v-26.056
	c0-4.971,4.029-9,9-9s9,4.029,9,9v15.038l52.391-11.594c3.612-0.8,6.685-1.422,9.154-1.922c11.068-2.241,11.068-2.241,17.018-9.012
	c1.925-2.191,1.619-3.834,1.519-4.374c-0.433-2.323-2.652-4.786-5.793-6.429c-2.689-1.405-6.9-2.52-11.775-3.811l-0.543-0.144
	l-92.696-24.582L93.028,315.2c-4.873,1.29-9.081,2.404-11.768,3.809c-3.141,1.642-5.36,4.105-5.793,6.429
	c-0.101,0.54-0.406,2.184,1.519,4.375c5.948,6.77,5.948,6.77,17.017,9.011c2.47,0.5,5.542,1.122,9.154,1.922l52.393,11.594v-15.038
	c0-4.971,4.029-9,9-9s9,4.029,9,9v26.054c0.008,0.386-0.009,0.776-0.052,1.168c-0.113,1.051-0.408,2.049-0.852,2.96
	c-0.589,1.214-1.434,2.257-2.451,3.075c-1.019,0.821-2.22,1.425-3.533,1.741c-0.681,0.165-1.386,0.251-2.104,0.251
	c-0.337,0-0.677-0.02-1.018-0.058c-0.382-0.043-0.756-0.109-1.121-0.198l-63.151-13.975c-3.454-0.764-6.314-1.343-8.837-1.854
	c-13.487-2.731-17.409-3.895-26.968-14.773c-4.966-5.653-6.987-12.597-5.691-19.551c1.464-7.861,6.985-14.816,15.148-19.084
	c4.473-2.338,9.583-3.691,15.5-5.258l88.855-23.563v-82.035c0-4.971,4.029-9,9-9s9,4.029,9,9v82.035l88.846,23.562
	c5.921,1.567,11.034,2.921,15.508,5.26C307.793,307.325,313.315,314.28,314.779,322.142z M103.77,36.12
	c3.25-3.762,8.933-4.177,12.694-0.929l18.852,16.282c3.762,3.249,4.178,8.933,0.929,12.694c-1.78,2.061-4.291,3.117-6.815,3.117
	c-2.084,0-4.178-0.72-5.879-2.188l-18.852-16.282C100.937,45.565,100.521,39.882,103.77,36.12z"/>
</svg>